<?xml version="1.0" standalone="no"?>
<!DOCTYPE svg PUBLIC "-//W3C//DTD SVG 20010904//EN"
 "http://www.w3.org/TR/2001/REC-SVG-20010904/DTD/svg10.dtd">
<svg version="1.0" xmlns="http://www.w3.org/2000/svg"
 width="1281.000000pt" height="1098.000000pt" viewBox="0 0 1281.000000 1098.000000"
 preserveAspectRatio="xMidYMid meet">
<metadata>
Created by potrace 1.16, written by Peter Selinger 2001-2019
</metadata>
<g transform="translate(0.000000,1098.000000) scale(0.100000,-0.100000)"
fill="#000000" stroke="none">
<path d="M3441 10714 c-426 -72 -789 -385 -924 -799 -61 -185 -57 85 -57
-3915 0 -3233 2 -3668 15 -3746 74 -430 378 -785 791 -923 188 -63 113 -61
1954 -61 1057 0 1701 4 1745 10 270 39 491 152 685 349 158 162 243 313 308
549 l27 97 3 977 3 978 -206 0 -205 0 0 -444 c0 -290 -4 -454 -11 -474 -23
-67 181 -62 -2348 -62 l-2290 0 -28 24 -28 24 -3 2891 -2 2891 29 32 29 33
2269 3 c1625 2 2279 0 2306 -8 25 -7 45 -22 57 -43 19 -31 20 -54 20 -514 l0
-483 205 0 206 0 -3 813 -3 812 -27 97 c-62 227 -147 381 -297 539 -142 150
-332 268 -521 322 -167 48 -120 47 -1924 46 -1401 -1 -1705 -3 -1775 -15z
m2333 -810 c19 -19 26 -37 26 -64 0 -27 -7 -45 -26 -64 l-27 -26 -521 0 c-571
0 -550 -2 -576 60 -10 24 -10 36 0 60 26 62 5 60 576 60 l521 0 27 -26z m-413
-7084 c226 -69 375 -304 339 -534 -43 -277 -323 -469 -585 -401 -190 50 -331
203 -366 395 -42 235 116 481 350 546 72 19 189 17 262 -6z"/>
<path d="M5318 8540 c-118 -63 -140 -229 -41 -322 58 -56 74 -58 422 -58 l319
0 6 -37 c7 -46 47 -424 216 -2028 71 -682 132 -1256 134 -1275 5 -34 4 -36
-48 -63 -135 -71 -240 -193 -291 -338 -110 -316 69 -665 392 -765 78 -23 217
-28 303 -10 221 46 398 218 455 441 23 91 19 224 -9 313 l-7 22 811 0 c769 0
812 -1 805 -17 -32 -86 -31 -255 4 -364 56 -178 214 -328 406 -385 82 -25 248
-25 330 0 306 92 485 391 420 701 -36 172 -158 328 -316 403 -46 22 -108 45
-137 51 -37 8 -460 11 -1377 11 l-1323 0 -6 38 c-3 20 -8 63 -12 94 l-6 57 33
5 c19 4 705 93 1526 200 820 107 1502 200 1515 206 34 18 78 61 94 93 18 34
414 2140 414 2202 0 83 -60 163 -138 185 -25 6 -648 10 -1894 10 -1810 0
-1858 0 -1858 19 0 10 -11 125 -25 254 -29 281 -41 314 -127 358 -35 18 -65
19 -495 19 -434 -1 -460 -2 -495 -20z m2142 -1505 c16 -8 34 -24 40 -34 6 -13
10 -172 10 -444 0 -408 -1 -425 -20 -450 -11 -13 -31 -28 -45 -31 -30 -8 -80
15 -95 43 -14 28 -14 855 1 882 6 12 25 27 42 34 40 18 33 18 67 0z m779 4
c61 -21 61 -25 61 -486 0 -458 1 -448 -59 -473 -40 -16 -80 3 -103 50 -16 32
-18 74 -18 426 0 265 4 401 11 423 7 18 26 41 43 52 17 10 31 19 32 19 1 0 15
-5 33 -11z m824 -30 l27 -29 0 -415 c0 -276 -4 -422 -11 -438 -12 -26 -57 -57
-83 -57 -9 0 -30 13 -48 29 l-33 29 0 430 c0 416 1 431 20 452 42 47 83 47
128 -1z m-2385 -2610 c83 -40 129 -142 102 -224 -54 -162 -265 -183 -341 -33
-23 44 -25 127 -5 166 31 60 109 111 170 112 16 0 50 -10 74 -21z m2778 -10
c19 -11 46 -41 60 -65 88 -150 -55 -329 -219 -275 -73 24 -137 131 -123 204
15 75 67 136 133 157 40 13 110 3 149 -21z"/>
<path d="M3776 7765 c-57 -20 -87 -45 -113 -95 -50 -94 -19 -209 72 -265 l48
-30 651 0 651 0 42 23 c60 31 96 89 101 161 7 104 -47 184 -143 210 -27 7
-240 11 -655 11 -502 -1 -622 -3 -654 -15z"/>
<path d="M4144 6771 c-82 -37 -129 -140 -105 -228 16 -63 51 -106 104 -132 43
-21 50 -21 883 -21 794 0 841 1 879 19 152 70 154 285 3 362 -36 18 -71 19
-880 19 -802 0 -845 -1 -884 -19z"/>
<path d="M3375 5795 c-160 -56 -173 -287 -22 -368 l42 -22 1010 -3 c716 -2
1025 1 1064 9 110 23 181 139 151 249 -15 57 -80 124 -135 139 -28 8 -341 11
-1055 11 -849 -1 -1022 -3 -1055 -15z"/>
</g>
</svg>
